PathFileType	4	(X/Y/Z)	s06c0303.trc
DataRate	CameraRate	NumFrames	NumMarkers	Units	OrigDataRate	OrigDataStartFrame	OrigNumFrames
200	200	5	48	mm	200	1750	2000
Frame#	Time	racr			lacr			c7			jug			rlel			rdr			llel			ldr			s2			lic			ric			lasi			rasi			rpsi			lpsi			rgt			lgt			rth1			rth2			rth3			rth4			rlfc			rmfc			rsh1			rsh2			rsh3			rsh4			rlmal			rcal			rtoe			rmt5			lth1			lth2			lth4			lth3			llfc			lmfc			llmal			lcal			lmt5			lsh1			lsh2			lsh3			lsh4			ltoe			SBIKE			LBIKE			RBIKE			
		X1	Y1	Z1	X2	Y2	Z2	X3	Y3	Z3	X4	Y4	Z4	X5	Y5	Z5	X6	Y6	Z6	X7	Y7	Z7	X8	Y8	Z8	X9	Y9	Z9	X10	Y10	Z10	X11	Y11	Z11	X12	Y12	Z12	X13	Y13	Z13	X14	Y14	Z14	X15	Y15	Z15	X16	Y16	Z16	X17	Y17	Z17	X18	Y18	Z18	X19	Y19	Z19	X20	Y20	Z20	X21	Y21	Z21	X22	Y22	Z22	X23	Y23	Z23	X24	Y24	Z24	X25	Y25	Z25	X26	Y26	Z26	X27	Y27	Z27	X28	Y28	Z28	X29	Y29	Z29	X30	Y30	Z30	X31	Y31	Z31	X32	Y32	Z32	X33	Y33	Z33	X34	Y34	Z34	X35	Y35	Z35	X36	Y36	Z36	X37	Y37	Z37	X38	Y38	Z38	X39	Y39	Z39	X40	Y40	Z40	X41	Y41	Z41	X42	Y42	Z42	X43	Y43	Z43	X44	Y44	Z44	X45	Y45	Z45	X46	Y46	Z46	X47	Y47	Z47	X48	Y48	Z48	
1750	8.7500	709.375802	1331.933124	-88.036342	726.739171	1307.230928	-402.913552	723.025253	1396.106379	-252.542552	686.814320	1237.892430	-239.807851	611.550189	1108.632091	44.482160	719.246047	916.834680	-44.529089	587.778572	1088.531757	-500.842772	708.418094	917.209552	-396.638310	157.063022	1281.357894	-216.534966	303.130193	1196.054884	-388.552441	305.003093	1196.725583	-56.604392	301.713886	1137.037477	-348.381581	315.922134	1139.059838	-91.983973	198.412090	1298.634963	-182.066871	193.240074	1300.333785	-241.559462	238.905723	1125.744246	-18.705276	257.634278	1153.340916	-410.670595	286.930988	994.306979	-6.083412	332.932611	915.571531	-11.402090	331.572348	828.744636	-19.816398	365.704642	927.225483	-27.743312	325.637715	722.640575	-38.000641	310.556310	704.725847	-150.683175	244.738925	631.406164	-14.485835	203.449441	557.831483	-33.977511	129.471756	509.519922	-39.372274	221.445954	545.389745	-69.046298	68.227950	458.322041	-47.411656	15.759524	490.654657	-97.706941	135.994596	240.998016	-90.214856	70.124601	317.577053	-23.465282	290.573114	1038.995384	-425.496679	355.379087	981.435181	-419.000851	384.622333	1000.748528	-405.549749	382.773500	896.077302	-414.498913	409.809137	777.837935	-391.301703	422.978451	760.729821	-277.570355	292.864100	417.997724	-375.483487	218.623544	401.604602	-327.265641	401.252160	326.238572	-399.346647	374.291518	673.405960	-412.222776	369.673309	588.236257	-393.559833	322.221320	513.266399	-388.612866	397.437916	583.953289	-365.859836	486.861644	316.366552	-340.320175	-158.714367	853.890501	-215.192032	-53.467939	80.686831	-407.647915	-53.357867	80.495764	-10.222787	
1751	8.7550	709.358667	1333.045510	-86.724394	728.035182	1308.691985	-401.053567	723.296816	1397.220570	-250.967622	687.021805	1238.825350	-238.321117	612.447452	1109.245273	44.927408	719.189796	916.784590	-44.318240	589.258153	1089.935863	-499.761516	708.633748	917.200526	-396.352770	157.992974	1281.875090	-217.283199	304.192664	1195.441891	-388.661851	304.805923	1198.350438	-56.657384	302.106542	1135.363268	-349.003186	316.271853	1140.669924	-92.277319	198.690709	1299.463168	-182.552149	194.064300	1300.403883	-242.340989	240.607548	1128.362468	-18.142484	256.613328	1150.474382	-411.184926	290.124072	997.900593	-5.749479	336.898765	919.989611	-11.573964	337.254496	833.359360	-19.230299	369.662819	932.155985	-27.488018	332.256754	726.838461	-37.430204	316.783639	709.291072	-150.280432	249.412054	637.010893	-14.182803	206.589980	564.461585	-33.904160	131.428275	517.962930	-39.611239	223.790217	552.063007	-68.763264	68.946814	468.538346	-47.687334	16.669733	501.028061	-97.651018	136.560815	251.262424	-90.216036	70.749409	327.915601	-23.466665	287.871354	1034.781927	-425.302334	351.355525	975.758132	-418.600767	381.094015	994.542258	-405.692276	376.700659	889.853965	-413.228079	401.343685	770.603587	-390.653506	415.183239	753.314391	-277.161631	292.898884	408.553995	-375.063093	218.990194	393.263472	-327.234429	400.953594	315.752956	-399.114571	367.603131	665.222664	-411.249107	364.907517	580.275563	-393.313100	319.217665	504.224277	-388.259316	393.365098	576.793749	-367.029703	486.623116	305.084423	-340.297423	-158.715651	853.879824	-215.159981	-53.387777	80.638825	-407.605345	-53.361973	80.466427	-10.212697	
1752	8.7600	709.215004	1334.318419	-85.399919	729.239482	1310.162889	-399.299107	723.565275	1398.302761	-249.369248	687.329701	1239.597982	-236.746866	613.402340	1109.949981	45.294003	719.013167	916.724104	-44.103177	590.728048	1091.305757	-498.683762	708.817442	917.189992	-395.995834	158.536194	1282.271471	-218.053210	305.238849	1194.559925	-388.953723	305.332257	1199.626774	-56.508853	302.433590	1133.210210	-349.254440	316.592199	1142.098603	-92.685595	199.126755	1300.149590	-183.334587	193.795195	1300.751635	-241.647729	242.304568	1130.721591	-17.687716	255.593480	1147.403177	-411.619177	293.164292	1001.645030	-5.674482	340.886865	924.147630	-11.409604	343.260374	837.531532	-18.421212	373.702362	936.973867	-27.227427	339.221425	730.823048	-36.958994	324.018586	713.353042	-148.899065	254.488827	642.565575	-13.740532	210.030486	571.153501	-33.901991	133.770441	526.276782	-39.945640	226.904471	558.517613	-68.919738	70.255828	478.847294	-47.947991	17.830452	511.171443	-98.257269	137.740440	261.566697	-90.266937	71.983880	338.300495	-23.526101	285.248840	1030.307462	-425.236718	347.198337	969.860634	-418.319906	377.540345	988.017340	-405.839421	370.442683	883.413714	-411.988367	393.031867	763.264851	-390.051383	407.196105	745.642465	-276.856866	292.642281	399.369913	-374.496792	219.647690	384.307033	-326.040503	400.049394	305.370093	-398.933139	360.654565	657.366252	-411.277344	359.854438	572.081495	-392.753901	316.011955	495.352016	-388.026033	388.789986	568.205987	-365.523148	485.795460	293.740152	-340.411539	-158.775947	853.811892	-215.216948	-53.430517	80.668960	-407.591986	-53.390049	80.455734	-10.216299	
1753	8.7650	708.976920	1335.905149	-84.191476	730.406811	1311.610330	-397.648487	723.883026	1399.463117	-247.842593	687.441648	1240.589534	-235.281592	614.295339	1110.928594	45.607745	718.790814	916.520217	-43.808811	592.215409	1092.579447	-497.619888	709.087776	916.879422	-395.251650	159.111885	1282.086635	-218.865281	306.278392	1193.362842	-389.200501	305.578316	1200.829228	-56.489748	303.037179	1130.674316	-349.634583	317.010955	1143.356285	-92.863576	198.955113	1300.895049	-183.843263	196.002536	1300.283595	-244.826378	244.110644	1132.832496	-17.276023	254.750458	1144.267835	-412.121784	295.903337	1004.730731	-5.591472	344.709163	928.469094	-11.106736	348.897616	841.716577	-17.669639	377.586103	941.715067	-27.070381	346.401933	734.909019	-36.569581	330.564949	717.579648	-148.495984	260.388461	648.043998	-13.237571	213.862877	577.853489	-33.948812	136.614298	534.750528	-40.161644	230.469330	564.982320	-68.990934	72.054888	489.169222	-48.308861	19.534835	521.334244	-98.685471	139.557435	271.893716	-90.362557	73.747377	348.592429	-23.655596	282.680465	1025.596319	-425.156838	343.062016	963.559866	-418.002184	373.886658	981.136040	-406.005371	364.052065	876.610798	-410.615266	385.210693	756.060452	-389.892485	399.315185	737.834956	-276.466077	292.009699	390.477890	-374.018475	219.411303	376.330206	-325.324457	398.624404	294.941141	-398.676627	353.970692	649.431184	-411.056885	354.928818	564.094340	-392.491570	312.755818	486.504681	-387.885068	384.191163	560.773850	-365.612544	484.449574	282.242999	-340.556138	-158.707846	853.829553	-215.195715	-53.363451	80.817017	-407.716907	-53.407540	80.544420	-10.259550	
1754	8.7700	708.622866	1337.581851	-82.995059	731.462767	1312.964127	-396.062722	724.191974	1400.489236	-246.248564	687.589060	1241.440336	-233.550751	615.097190	1111.868808	45.990341	718.660835	916.498138	-43.573106	593.729733	1093.757960	-496.577429	709.400685	916.911955	-394.795926	159.530902	1281.216959	-219.528275	307.388515	1191.890706	-389.412299	304.357608	1201.404139	-58.493407	303.809983	1128.257490	-350.047621	317.413028	1144.463020	-92.922139	199.103228	1300.809772	-184.698601	196.579761	1299.223209	-245.480328	245.789997	1134.671735	-16.946364	253.999560	1140.661962	-412.340855	299.017755	1007.753837	-5.613181	348.492882	932.276223	-11.170039	354.657788	845.728763	-16.722798	381.353449	946.295897	-27.024091	353.940434	738.984049	-35.821029	338.136402	721.204897	-147.394484	266.179767	653.721186	-12.775359	218.146776	584.672360	-33.908414	140.120265	543.126093	-40.413087	234.603627	571.699169	-68.903232	74.565846	499.166010	-48.629124	22.720873	531.702382	-98.783132	141.949747	282.009747	-90.435040	76.199373	358.791641	-23.801780	280.172144	1020.697699	-425.163090	338.900694	957.044045	-417.687086	370.247243	973.856966	-406.064534	357.495104	869.638771	-409.683197	377.267416	748.567632	-389.369588	391.668738	730.479943	-275.672184	290.966178	381.682241	-373.603473	218.819837	368.535498	-324.694805	396.701235	284.727192	-398.517438	347.447635	641.589987	-410.646663	350.029001	556.306169	-392.221940	309.371243	477.902246	-387.703443	379.519879	553.319891	-365.547193	482.541819	270.738732	-340.644207	-158.747460	853.862969	-214.958514	-53.383094	80.808247	-407.700651	-53.624977	80.557694	-9.993919	
